<svg t="1595137909918" class="icon" viewBox="0 0 1024 1024" version="1.1" xmlns="http://www.w3.org/2000/svg" p-id="13673" width="200" height="200"><path d="M512 0C229.682 0 0 229.682 0 512c0 282.317 229.682 512 512 512 282.317 0 512-229.683 512-512C1024 229.682 794.317 0 512 0z m0 976.982c-256.393 0-464.982-208.59-464.982-464.982S255.607 47.018 512 47.018 976.982 255.607 976.982 512 768.393 976.982 512 976.982z" p-id="13674" fill="#bfbfbf"></path><path d="M766.016 488.491H257.984c-12.962 0-23.509 10.546-23.509 23.509s10.546 23.509 23.509 23.509h508.031c12.963 0 23.509-10.546 23.509-23.509s-10.545-23.509-23.508-23.509z" p-id="13675" fill="#bfbfbf"></path></svg>