<svg t="1597140774637" class="icon" viewBox="0 0 1024 1024" version="1.1" xmlns="http://www.w3.org/2000/svg" p-id="2740" width="200" height="200"><path d="M535.952 890.432a33.392 33.392 0 1 1 0 66.784H200.352a133.568 133.568 0 0 1-133.568-133.568V200.352a133.552 133.552 0 0 1 133.568-133.568h623.296a133.584 133.584 0 0 1 133.568 133.568v623.296a133.6 133.6 0 0 1-133.568 133.568h-135.6a33.408 33.408 0 0 1 0-66.784h135.6a66.88 66.88 0 0 0 66.784-66.784V200.352a66.864 66.864 0 0 0-66.784-66.8H200.352a66.88 66.88 0 0 0-66.8 66.8v623.296c0 36.8 30 66.784 66.8 66.784h335.6" p-id="2741"></path><path d="M500.864 734.624H278.272a33.408 33.408 0 0 1 0-66.8h222.592a33.44 33.44 0 0 1 33.408 33.392 33.424 33.424 0 0 1-33.408 33.408z m244.864-178.128H278.272a33.376 33.376 0 1 1 0-66.752h467.456a33.376 33.376 0 1 1 0 66.752z m0-178.064H278.272a33.392 33.392 0 1 1 0-66.768h467.456a33.36 33.36 0 1 1 0 66.768z" p-id="2742"></path></svg>