<svg t="1597047681308" class="icon" viewBox="0 0 1080 1024" version="1.1" xmlns="http://www.w3.org/2000/svg" p-id="4688" width="200" height="200"><path d="M654.222 170.837V312.89a28.444 28.444 0 0 0 28.445 28.444H824.66a142.222 142.222 0 0 0-40.561-92.16l-35.328-35.953a142.222 142.222 0 0 0-94.55-42.383z m170.667 255.83H682.667a113.778 113.778 0 0 1-113.778-113.778V170.667H284.444A28.444 28.444 0 0 0 256 199.11V452.95h-85.333V199.111A113.778 113.778 0 0 1 284.444 85.333H647.34a227.556 227.556 0 0 1 162.247 68.04l35.385 36.01a227.556 227.556 0 0 1 65.251 159.46v476.046a113.778 113.778 0 0 1-113.778 113.778h-512a113.778 113.778 0 0 1-113.777-113.778v-30.606H256v30.606a28.444 28.444 0 0 0 28.444 28.444h512a28.444 28.444 0 0 0 28.445-28.444V426.667zM170.667 732.5V514.844h55.865v170.553H331.89v47.104H170.667z m231.708-108.6c0 22.186 4.494 39.196 13.483 50.972 9.045 11.833 21.959 17.75 38.798 17.75 16.953 0 29.98-5.917 39.083-17.75 9.102-11.776 13.653-28.786 13.653-50.973 0-22.072-4.551-39.025-13.653-50.858-9.103-11.947-22.13-17.806-39.083-17.806-16.84 0-29.753 5.86-38.798 17.692-8.989 11.833-13.483 28.843-13.483 50.972z m-56.604 0c0-35.329 9.785-63.318 29.354-83.855 19.513-20.48 46.08-30.777 79.531-30.777 33.564 0 60.302 10.24 80.043 30.891 19.74 20.537 29.582 48.47 29.582 83.74s-9.842 63.204-29.582 83.798c-19.74 20.594-46.422 30.89-80.043 30.89-33.508 0-60.018-10.24-79.53-30.833-19.57-20.48-29.355-48.47-29.355-83.855z m415.8 108.657l-4.437-28.103c-8.192 11.378-17.92 19.911-29.184 25.486-11.264 5.575-24.462 8.363-39.538 8.363-14.051 0-27.079-2.56-39.082-7.68a91.876 91.876 0 0 1-31.687-22.642 102.741 102.741 0 0 1-21.732-36.181 135.282 135.282 0 0 1-7.395-45.511c0-35.556 10.24-64.114 30.549-85.561 20.31-21.504 47.388-32.2 81.18-32.2 25.543 0 46.592 6.372 63.147 19.172 16.612 12.857 27.136 30.72 31.573 53.817h-53.361a42.325 42.325 0 0 0-16.214-21.22 47.787 47.787 0 0 0-26.738-7.167 46.308 46.308 0 0 0-38.74 19.513c-9.843 13.027-14.792 30.15-14.792 51.598 0 21.049 4.892 37.83 14.564 50.29 9.67 12.458 22.698 18.66 38.968 18.66a51.2 51.2 0 0 0 32.256-9.9 42.837 42.837 0 0 0 15.93-27.59H698.31v-41.814h98.133v118.613h-34.872z" p-id="4689"></path></svg>