<svg t="1595483221761" class="icon" viewBox="0 0 1024 1024" version="1.1" xmlns="http://www.w3.org/2000/svg" p-id="2108" width="200" height="200"><path d="M512 112c-220.9 0-400 179.1-400 400s179.1 400 400 400 400-179.1 400-400-179.1-400-400-400z m-36.4 109.1c0-20.1 16.3-36.4 36.4-36.4 20.1 0 36.4 16.3 36.4 36.4v54.5c0 20.1-16.3 36.4-36.4 36.4-20.1 0-36.4-16.3-36.4-36.4v-54.5z m-200 327.3h-54.5c-20.1 0-36.4-16.3-36.4-36.4 0-20.1 16.3-36.4 36.4-36.4h54.5c20.1 0 36.4 16.3 36.4 36.4 0 20.1-16.3 36.4-36.4 36.4z m98-174.8c-14 14-36.7 14.2-51 0.4l-36.4-36.4c-13.8-14.3-13.6-36.9 0.4-51 14-14 36.7-14.2 51-0.4l36.4 36.4c13.9 14.3 13.7 37-0.4 51z m119.1 209.7c-25.4-6.7-45.3-26.5-51.9-51.9-6.7-25.4 0.9-52.5 19.8-70.7 12.7-12.7 87.9-70.8 225.7-174.3 14.3-13.8 36.9-13.6 51 0.4 14 14 14.2 36.7 0.4 51-103.5 137.8-161.6 213-174.3 225.7-18.2 18.8-45.3 26.4-70.7 19.8z m310.2-34.9h-54.5c-20.1 0-36.4-16.3-36.4-36.4 0-20.1 16.3-36.4 36.4-36.4h54.5c20.1 0 36.4 16.3 36.4 36.4 0 20.1-16.3 36.4-36.4 36.4z" p-id="2109"></path></svg>