<svg t="1597047950942" class="icon" viewBox="0 0 1024 1024" version="1.1" xmlns="http://www.w3.org/2000/svg" p-id="6079" width="200" height="200"><path d="M1016.86992592 201.31081482H7.13007408v-71.76920179C7.13007408 83.40426903 44.56812089 45.96622222 90.78313718 45.96622222h842.43372564c46.2150163 0 83.65306311 37.51571911 83.6530631 83.65306311V201.31081482z m0 77.67229629v615.39760356c0 46.137344-37.43804682 83.57539082-83.6530631 83.57539081H90.78313718A83.65306311 83.65306311 0 0 1 7.13007408 894.38071467V278.90543882h1009.73985184zM413.97756208 573.51645867a38.68080355 38.68080355 0 0 0-9.16533097-14.680064l-109.90629926-109.75095467a38.83614815 38.83614815 0 1 0-54.91431348 54.91431348L327.5282963 591.53643141l-84.19676919 84.27444148a38.83614815 38.83614815 0 0 0 54.91431348 54.91431348l109.82862696-109.82862696a38.83614815 38.83614815 0 0 0 5.90309453-47.38010074zM550.83614815 667.34459259a38.83614815 38.83614815 0 0 0 0 77.6722963h155.3445926a38.83614815 38.83614815 0 0 0 0-77.6722963H550.83614815z" p-id="6080"></path></svg>