<svg t="1598149060828" class="icon" viewBox="0 0 1024 1024" version="1.1" xmlns="http://www.w3.org/2000/svg" p-id="7318" width="200" height="200"><path d="M933.624 0.022H90.376C40.542 0.022 0 40.522 0 90.354v843.292c0 49.832 40.542 90.332 90.376 90.332h843.25c49.834 0 90.376-40.5 90.376-90.332V90.354C1024 40.522 983.458 0.022 933.624 0.022zM90.376 60.23h843.25c16.624 0 30.124 13.542 30.124 30.124v130.5H60.25v-130.5c0-16.582 13.5-30.124 30.126-30.124z m843.248 903.542H90.376c-16.624 0-30.124-13.542-30.124-30.124V281.104h903.5v652.542c-0.002 16.582-13.502 30.126-30.128 30.126z" p-id="7319"></path><path d="M227.708 515.772l106 106.042-103.874 103.832 42.582 42.582 146.5-146.414-148.624-148.668zM532.084 722.814H752.96v60.25H532.084z" p-id="7320"></path></svg>